<svg version="1.1" id="Layer_1" xmlns="http://www.w3.org/2000/svg" x="0px" y="0px" viewBox="0 0 374 768.5" xml:space="preserve"><style type="text/css">.st0{fill:url(#SVGID_1_);} .st1{fill:url(#SVGID_2_);} .st2{fill:url(#SVGID_3_);} .st3{fill:url(#SVGID_4_);} .st4{fill:url(#SVGID_5_);} .st5{fill:url(#SVGID_6_);} .st6{fill:url(#SVGID_7_);} .st7{fill:url(#SVGID_8_);} .st8{fill:url(#SVGID_9_);} .st9{fill:url(#SVGID_10_);} .st10{fill:url(#SVGID_11_);} .st11{fill:url(#SVGID_12_);} .st12{fill:url(#SVGID_13_);} .st13{fill:url(#SVGID_14_);} .st14{fill:url(#SVGID_15_);} .st15{fill:url(#SVGID_16_);} .st16{fill:none;} .st17{fill:#BE16DB;} .st18{font-family:&apos;Vivian&apos;;} .st19{font-size:27px;} .st20{fill:#FF00FF;} .st21{font-size:23px;} .st22{font-family:&apos;MyriadPro-Regular&apos;;} .st23{fill:#203B8F;} .st24{font-size:35.5818px;}</style><linearGradient id="SVGID_1_" gradientUnits="userSpaceOnUse" x1="212.6595" y1="174.8108" x2="249.79" y2="174.8108"><stop offset="0" stop-color="#D102BF"/><stop offset="1" stop-color="#0002BF"/></linearGradient><path class="st0" d="M231.3,138.5c0,0-32.9,39.4-11.3,48.7c27.7,12,25.9,24,25.9,24s10-11.8-2.2-20c-12.2-8.2-20.6-12.1-20-23.1 C224.2,161.1,231.3,138.5,231.3,138.5z"/><linearGradient id="SVGID_2_" gradientUnits="userSpaceOnUse" x1="309.5941" y1="466.3365" x2="233.5943" y2="212.3365"><stop offset="0" stop-color="#F00"/><stop offset="7.378685e-002" stop-color="#F10013"/><stop offset="0.3064" stop-color="#C80049"/><stop offset="0.5234" stop-color="#A70073"/><stop offset="0.718" stop-color="#900092"/><stop offset="0.8835" stop-color="#8200A4"/><stop offset="1" stop-color="#7D00AB"/></linearGradient><path class="st1" d="M254.4,210.5c0,0-16.9,32.6-21.7,65.2c-4.7,32.6,2.8,86.4,38.6,101.1c35.8,14.7,52.6,30.8,47,44.7 c-5.6,13.9-57.4,27.1-57.4,27.1s83.8,0.5,77.2-31.3c-6.6-31.8-74.3-37.2-84.7-74.7C243.1,305.1,246.9,248,254.4,210.5z"/><linearGradient id="SVGID_3_" gradientUnits="userSpaceOnUse" x1="150.2713" y1="390.4025" x2="374.0229" y2="390.4025"><stop offset="0" stop-color="#209F20"/><stop offset="1" stop-color="#209FA8"/></linearGradient><path class="st2" d="M304,358.1c0,0,74.7,22.8,38.6,39.1c-36.1,16.3-115,14.7-157,12.2c-42-2.4-3.4-19.6-3.4-19.6 s-60.5,13.9-15.1,28.5C212.5,433.1,505.5,410.2,304,358.1z"/><linearGradient id="SVGID_4_" gradientUnits="userSpaceOnUse" x1="228.4729" y1="555.0045" x2="287.7208" y2="555.0045"><stop offset="0" stop-color="#00F196"/><stop offset="0.2119" stop-color="#40F570"/><stop offset="0.4988" stop-color="#91F941"/><stop offset="0.735" stop-color="#CCFC1E"/><stop offset="0.9083" stop-color="#F1FE08"/><stop offset="1" stop-color="#FF0"/></linearGradient><path class="st3" d="M257.8,393.3c0,0-42.8,38.6-25,103.3c17.7,64.7,44.9,109.5,45.9,137.7c1,28.2-14.6,82.4-14.6,82.4 s36.5-60.5,18.8-114.8C272.8,571.2,233.8,471.5,257.8,393.3z"/><linearGradient id="SVGID_5_" gradientUnits="userSpaceOnUse" x1="250.5171" y1="161.6646" x2="278.7291" y2="161.6646"><stop offset="0" stop-color="#00F100"/><stop offset="0.2119" stop-color="#40F500"/><stop offset="0.4988" stop-color="#91F900"/><stop offset="0.735" stop-color="#CCFC00"/><stop offset="0.9083" stop-color="#F1FE00"/><stop offset="1" stop-color="#FF0"/></linearGradient><path class="st4" d="M250.5,137.7c0,0,18.8,12.5,17.7,25c-1,12.5-4.2,23-4.2,23S304.8,143.9,250.5,137.7z"/><linearGradient id="SVGID_6_" gradientUnits="userSpaceOnUse" x1="202.1155" y1="460.2055" x2="310.1155" y2="685.2054"><stop offset="0" stop-color="#FF0"/><stop offset="0.2119" stop-color="#F7BF0E"/><stop offset="0.4988" stop-color="#ED6E20"/><stop offset="0.735" stop-color="#E5332D"/><stop offset="0.9083" stop-color="#E10E35"/><stop offset="1" stop-color="#DF0038"/></linearGradient><path class="st5" d="M239.3,465.3c0,0-31.8,43.8-22.9,64.7c9,20.9,50.8,62.6,50.8,62.6S130.9,518.5,239.3,465.3z"/><linearGradient id="SVGID_7_" gradientUnits="userSpaceOnUse" x1="222.3462" y1="123.6096" x2="367.6441" y2="123.6096"><stop offset="0" stop-color="#00F100"/><stop offset="0.2119" stop-color="#40F500"/><stop offset="0.4988" stop-color="#91F900"/><stop offset="0.735" stop-color="#CCFC00"/><stop offset="0.9083" stop-color="#F1FE00"/><stop offset="1" stop-color="#FF0"/></linearGradient><path class="st6" d="M367.6,0c0,0-14.3,119.4-58.2,180.6c-32.4,45.3-87.1,66.6-87.1,66.6S367.3,250.1,367.6,0z"/><linearGradient id="SVGID_8_" gradientUnits="userSpaceOnUse" x1="0" y1="254.3216" x2="266.1675" y2="254.3216"><stop offset="0" stop-color="#FF0"/><stop offset="0.2119" stop-color="#F7BF0E"/><stop offset="0.4988" stop-color="#ED6E20"/><stop offset="0.735" stop-color="#E5332D"/><stop offset="0.9083" stop-color="#E10E35"/><stop offset="1" stop-color="#DF0038"/></linearGradient><path class="st7" d="M266.2,250.4c0,0-32.3,30.3-95.7,17.7C107.1,255.6,43.7,240.9,0,265.5c20.1-24.1,56.2-36.3,113.7-21.7 C176.4,259.8,189.1,263.9,266.2,250.4z"/><linearGradient id="SVGID_9_" gradientUnits="userSpaceOnUse" x1="280.0699" y1="146.1014" x2="308.8821" y2="146.1014"><stop offset="0" stop-color="#78FFE6"/><stop offset="1" stop-color="#0002BF"/></linearGradient><path class="st8" d="M280.1,134.5c0,0,7.5-5.3,12,3.5c4.4,8.9-3.1,21.7-8.9,27C310.7,172.6,324.9,103.9,280.1,134.5z"/><linearGradient id="SVGID_10_" gradientUnits="userSpaceOnUse" x1="196.044" y1="322.7686" x2="257.4932" y2="322.7686"><stop offset="0" stop-color="#57FFDE"/><stop offset="1" stop-color="#0002BF"/></linearGradient><path class="st9" d="M213.3,250.3c0,0-28.8,40.4-7.1,71.8c21.7,31.5,42.1,44.8,31,54.5c-11.1,9.8-41.2,18.6-41.2,18.6 s66.1-4,61.2-31.5C252.4,336.3,197.4,323,213.3,250.3z"/><linearGradient id="SVGID_11_" gradientUnits="userSpaceOnUse" x1="258.3568" y1="657.9141" x2="280.5132" y2="657.9141"><stop offset="0" stop-color="#78FFE6"/><stop offset="1" stop-color="#0002BF"/></linearGradient><path class="st10" d="M265,602.7c0,0-14.6,16-0.4,58.1c14.2,42.1,16,52.3,16,52.3S263.7,632,265,602.7z"/><linearGradient id="SVGID_12_" gradientUnits="userSpaceOnUse" x1="252.6161" y1="334.0309" x2="308.1923" y2="334.0309"><stop offset="0" stop-color="#FF0"/><stop offset="0.2119" stop-color="#F7BF0E"/><stop offset="0.4988" stop-color="#ED6E20"/><stop offset="0.735" stop-color="#E5332D"/><stop offset="0.9083" stop-color="#E10E35"/><stop offset="1" stop-color="#DF0038"/></linearGradient><path class="st11" d="M269.4,323.4c-8-9.2-11.7-26.8-15.5-38.1c0,0-7.1,33.7,12,49.7c19.1,16,42.1,28.8,25.3,42.1 c-16.9,13.3,20,2.2,16.8-16.8C306,347.7,284.6,340.9,269.4,323.4z"/><linearGradient id="SVGID_13_" gradientUnits="userSpaceOnUse" x1="253.021" y1="181.8459" x2="356.065" y2="181.8459"><stop offset="0" stop-color="#FFFF1A"/><stop offset="1" stop-color="#FF4D00"/></linearGradient><path class="st12" d="M253,265.3c0,0,29.8-8.5,42.5-34c12.7-25.5,4.2-38.7,23.7-82.2c19.5-43.4,36.8-50.7,36.8-50.7 s-37.2,23.2-55.3,67.1S275.4,254.1,253,265.3z"/><linearGradient id="SVGID_14_" gradientUnits="userSpaceOnUse" x1="102.2593" y1="258.3658" x2="253.9077" y2="258.3658"><stop offset="0" stop-color="#FF0"/><stop offset="0.109" stop-color="#FEF801"/><stop offset="0.2639" stop-color="#FCE606"/><stop offset="0.4461" stop-color="#F8C70C"/><stop offset="0.6492" stop-color="#F29D16"/><stop offset="0.8668" stop-color="#EC6722"/><stop offset="1" stop-color="#E7422A"/></linearGradient><path class="st13" d="M253.9,271.9c0,0-18.2-25.7-55-27c-36.8-1.3-78,20.8-96.7,20.4c12.4,2.2,23.1,4.4,49.7-3.5 C187.2,251.1,207.8,249.7,253.9,271.9z"/><linearGradient id="SVGID_15_" gradientUnits="userSpaceOnUse" x1="259.9037" y1="744.3532" x2="278.7154" y2="744.3532"><stop offset="0" stop-color="#FF0"/><stop offset="0.2119" stop-color="#F7BF0E"/><stop offset="0.4988" stop-color="#ED6E20"/><stop offset="0.735" stop-color="#E5332D"/><stop offset="0.9083" stop-color="#E10E35"/><stop offset="1" stop-color="#DF0038"/></linearGradient><path class="st14" d="M263.2,720.2c0,0-5,20.7-2.7,37.2c1.3,9.3,4,11.5,8,11.1c4-0.4,10.2-17.3,10.2-17.3S262.8,765.8,263.2,720.2z"/><linearGradient id="SVGID_16_" gradientUnits="userSpaceOnUse" x1="170.5938" y1="415.8412" x2="305.8755" y2="415.8412"><stop offset="0" stop-color="#00F100"/><stop offset="0.2119" stop-color="#40F500"/><stop offset="0.4988" stop-color="#91F900"/><stop offset="0.735" stop-color="#CCFC00"/><stop offset="0.9083" stop-color="#F1FE00"/><stop offset="1" stop-color="#FF0"/></linearGradient><path class="st15" d="M188.8,390.7c0,0-34.2,18.2-8.9,33.7c55,33.7,125.9,5.3,125.9,5.3S167.5,438.6,188.8,390.7z"/><path class="st16" d="M0 0H374V768.5H0z"/><text transform="matrix(1 0 0 1 55.5225 20.0879)"><tspan x="0" y="0" class="st17 st18 st19">DANZA FANTASY</tspan><tspan x="-55.5" y="27.6" class="st20 st18 st21">Uno stile che comprende lo </tspan><tspan x="-55.5" y="55.2" class="st20 st18 st21">studio di vari stili di danza</tspan><tspan x="-55.5" y="82.8" class="st20 st18 st21">in maniera più approfondita.</tspan><tspan x="-55.5" y="110.4" class="st20 st18 st21">L</tspan><tspan x="-38.8" y="110.4" class="st20 st22 st21">&apos;</tspan><tspan x="-34.5" y="110.4" class="st20 st18 st21">obbiettivo di questo</tspan><tspan x="-55.5" y="138" class="st20 st18 st21">corso è viaggiare,</tspan><tspan x="-55.5" y="165.6" class="st20 st18 st21">imparare e vivere</tspan><tspan x="-55.5" y="193.2" class="st20 st18 st21">la gioia di danzare</tspan><tspan x="-55.5" y="276" class="st20 st18 st21">e condividere </tspan><tspan x="-55.5" y="303.6" class="st20 st18 st21">un palcoscenico</tspan><tspan x="-55.5" y="331.2" class="st20 st18 st21">nazionale con</tspan><tspan x="-55.5" y="358.8" class="st20 st18 st21">altri giovani</tspan><tspan x="-55.5" y="386.4" class="st20 st18 st21">ballerini</tspan><tspan x="-55.5" y="414" class="st20 st18 st21">come noi.</tspan></text><text transform="matrix(0.7704 0 0 1 78.1685 591.6567)"><tspan x="0" y="0" class="st23 st18 st24">Orario:</tspan><tspan x="-3.3" y="42.7" class="st23 st18 st24">Lunedì,</tspan><tspan x="-101.5" y="85.4" class="st23 st18 st24">Martedì e Giovedì</tspan><tspan x="-30.7" y="128.1" class="st23 st18 st24">alle 18:00</tspan></text></svg>