<?xml version="1.0" encoding="utf-8"?>
<!-- Generator: Adobe Illustrator 19.1.0, SVG Export Plug-In . SVG Version: 6.00 Build 0)  -->
<svg version="1.1" id="Layer_1" xmlns="http://www.w3.org/2000/svg" xmlns:xlink="http://www.w3.org/1999/xlink" x="0px" y="0px"
	 viewBox="0 0 410.9 778.2" style="enable-background:new 0 0 410.9 778.2;" xml:space="preserve">
<style type="text/css">
	.st0{fill:url(#SVGID_1_);}
	.st1{fill:url(#SVGID_2_);}
	.st2{fill:url(#SVGID_3_);}
	.st3{fill:url(#SVGID_4_);}
	.st4{fill:url(#SVGID_5_);}
	.st5{fill:url(#SVGID_6_);}
	.st6{fill:url(#SVGID_7_);}
	.st7{fill:url(#SVGID_8_);}
	.st8{fill:url(#SVGID_9_);}
	.st9{fill:url(#SVGID_10_);}
	.st10{fill:url(#SVGID_11_);}
	.st11{fill:url(#SVGID_12_);}
	.st12{fill:url(#SVGID_13_);}
	.st13{fill:url(#SVGID_14_);}
	.st14{fill:url(#SVGID_15_);}
	.st15{fill:url(#SVGID_16_);}
</style>
<g>
	<linearGradient id="SVGID_1_" gradientUnits="userSpaceOnUse" x1="249.4976" y1="174.8108" x2="286.6281" y2="174.8108">
		<stop  offset="0" style="stop-color:#D102BF"/>
		<stop  offset="1" style="stop-color:#0002BF"/>
	</linearGradient>
	<path class="st0" d="M268.1,138.5c0,0-32.9,39.4-11.3,48.7c27.7,12,25.9,24,25.9,24s10-11.8-2.2-20c-12.2-8.2-20.6-12.1-20-23.1
		C261,161.1,268.1,138.5,268.1,138.5z"/>
	<linearGradient id="SVGID_2_" gradientUnits="userSpaceOnUse" x1="346.4323" y1="466.3365" x2="270.4325" y2="212.3365">
		<stop  offset="0" style="stop-color:#FF0000"/>
		<stop  offset="7.378685e-002" style="stop-color:#F10013"/>
		<stop  offset="0.3064" style="stop-color:#C80049"/>
		<stop  offset="0.5234" style="stop-color:#A70073"/>
		<stop  offset="0.718" style="stop-color:#900092"/>
		<stop  offset="0.8835" style="stop-color:#8200A4"/>
		<stop  offset="1" style="stop-color:#7D00AB"/>
	</linearGradient>
	<path class="st1" d="M291.2,210.5c0,0-16.9,32.6-21.7,65.2c-4.7,32.6,2.8,86.4,38.6,101.1c35.8,14.7,52.6,30.8,47,44.7
		c-5.6,13.9-57.4,27.1-57.4,27.1s83.8,0.5,77.2-31.3c-6.6-31.8-74.3-37.2-84.7-74.7C279.9,305.1,283.7,248,291.2,210.5z"/>
	<linearGradient id="SVGID_3_" gradientUnits="userSpaceOnUse" x1="187.1094" y1="390.4025" x2="410.8611" y2="390.4025">
		<stop  offset="0" style="stop-color:#209F20"/>
		<stop  offset="1" style="stop-color:#209FA8"/>
	</linearGradient>
	<path class="st2" d="M340.8,358.1c0,0,74.7,22.8,38.6,39.1c-36.1,16.3-115,14.7-157,12.2c-42-2.4-3.4-19.6-3.4-19.6
		s-60.5,13.9-15.1,28.5C249.3,433.1,542.4,410.2,340.8,358.1z"/>
	<linearGradient id="SVGID_4_" gradientUnits="userSpaceOnUse" x1="265.311" y1="555.0045" x2="324.5589" y2="555.0045">
		<stop  offset="0" style="stop-color:#00F196"/>
		<stop  offset="0.2119" style="stop-color:#40F570"/>
		<stop  offset="0.4988" style="stop-color:#91F941"/>
		<stop  offset="0.735" style="stop-color:#CCFC1E"/>
		<stop  offset="0.9083" style="stop-color:#F1FE08"/>
		<stop  offset="1" style="stop-color:#FFFF00"/>
	</linearGradient>
	<path class="st3" d="M294.7,393.3c0,0-42.8,38.6-25,103.3c17.7,64.7,44.9,109.5,45.9,137.7c1,28.2-14.6,82.4-14.6,82.4
		s36.5-60.5,18.8-114.8C309.6,571.2,270.7,471.5,294.7,393.3z"/>
	<linearGradient id="SVGID_5_" gradientUnits="userSpaceOnUse" x1="287.3552" y1="161.6646" x2="315.5673" y2="161.6646">
		<stop  offset="0" style="stop-color:#00F100"/>
		<stop  offset="0.2119" style="stop-color:#40F500"/>
		<stop  offset="0.4988" style="stop-color:#91F900"/>
		<stop  offset="0.735" style="stop-color:#CCFC00"/>
		<stop  offset="0.9083" style="stop-color:#F1FE00"/>
		<stop  offset="1" style="stop-color:#FFFF00"/>
	</linearGradient>
	<path class="st4" d="M287.4,137.7c0,0,18.8,12.5,17.7,25c-1,12.5-4.2,23-4.2,23S341.6,143.9,287.4,137.7z"/>
	<linearGradient id="SVGID_6_" gradientUnits="userSpaceOnUse" x1="238.9537" y1="460.2055" x2="346.9536" y2="685.2054">
		<stop  offset="0" style="stop-color:#FFFF00"/>
		<stop  offset="0.2119" style="stop-color:#F7BF0E"/>
		<stop  offset="0.4988" style="stop-color:#ED6E20"/>
		<stop  offset="0.735" style="stop-color:#E5332D"/>
		<stop  offset="0.9083" style="stop-color:#E10E35"/>
		<stop  offset="1" style="stop-color:#DF0038"/>
	</linearGradient>
	<path class="st5" d="M276.2,465.3c0,0-31.8,43.8-22.9,64.7c9,20.9,50.8,62.6,50.8,62.6S167.7,518.5,276.2,465.3z"/>
	<linearGradient id="SVGID_7_" gradientUnits="userSpaceOnUse" x1="259.1843" y1="123.6096" x2="404.4822" y2="123.6096">
		<stop  offset="0" style="stop-color:#00F100"/>
		<stop  offset="0.2119" style="stop-color:#40F500"/>
		<stop  offset="0.4988" style="stop-color:#91F900"/>
		<stop  offset="0.735" style="stop-color:#CCFC00"/>
		<stop  offset="0.9083" style="stop-color:#F1FE00"/>
		<stop  offset="1" style="stop-color:#FFFF00"/>
	</linearGradient>
	<path class="st6" d="M404.5,0c0,0-14.3,119.4-58.2,180.6c-32.4,45.3-87.1,66.6-87.1,66.6S404.2,250.1,404.5,0z"/>
	<linearGradient id="SVGID_8_" gradientUnits="userSpaceOnUse" x1="36.8381" y1="254.3216" x2="303.0056" y2="254.3216">
		<stop  offset="0" style="stop-color:#FFFF00"/>
		<stop  offset="0.2119" style="stop-color:#F7BF0E"/>
		<stop  offset="0.4988" style="stop-color:#ED6E20"/>
		<stop  offset="0.735" style="stop-color:#E5332D"/>
		<stop  offset="0.9083" style="stop-color:#E10E35"/>
		<stop  offset="1" style="stop-color:#DF0038"/>
	</linearGradient>
	<path class="st7" d="M303,250.4c0,0-32.3,30.3-95.7,17.7c-63.4-12.5-126.8-27.1-170.5-2.5c20.1-24.1,56.2-36.3,113.7-21.7
		C213.2,259.8,226,263.9,303,250.4z"/>
	<linearGradient id="SVGID_9_" gradientUnits="userSpaceOnUse" x1="316.908" y1="146.1014" x2="345.7203" y2="146.1014">
		<stop  offset="0" style="stop-color:#78FFE6"/>
		<stop  offset="1" style="stop-color:#0002BF"/>
	</linearGradient>
	<path class="st8" d="M316.9,134.5c0,0,7.5-5.3,12,3.5c4.4,8.9-3.1,21.7-8.9,27C347.5,172.6,361.7,103.9,316.9,134.5z"/>
	<linearGradient id="SVGID_10_" gradientUnits="userSpaceOnUse" x1="232.8821" y1="322.7686" x2="294.3313" y2="322.7686">
		<stop  offset="0" style="stop-color:#57FFDE"/>
		<stop  offset="1" style="stop-color:#0002BF"/>
	</linearGradient>
	<path class="st9" d="M250.2,250.3c0,0-28.8,40.4-7.1,71.8c21.7,31.5,42.1,44.8,31,54.5c-11.1,9.8-41.2,18.6-41.2,18.6
		s66.1-4,61.2-31.5C289.2,336.3,234.2,323,250.2,250.3z"/>
	<linearGradient id="SVGID_11_" gradientUnits="userSpaceOnUse" x1="295.1949" y1="657.9141" x2="317.3513" y2="657.9141">
		<stop  offset="0" style="stop-color:#78FFE6"/>
		<stop  offset="1" style="stop-color:#0002BF"/>
	</linearGradient>
	<path class="st10" d="M301.8,602.7c0,0-14.6,16-0.4,58.1c14.2,42.1,16,52.3,16,52.3S300.5,632,301.8,602.7z"/>
	<linearGradient id="SVGID_12_" gradientUnits="userSpaceOnUse" x1="289.4542" y1="334.0309" x2="345.0304" y2="334.0309">
		<stop  offset="0" style="stop-color:#FFFF00"/>
		<stop  offset="0.2119" style="stop-color:#F7BF0E"/>
		<stop  offset="0.4988" style="stop-color:#ED6E20"/>
		<stop  offset="0.735" style="stop-color:#E5332D"/>
		<stop  offset="0.9083" style="stop-color:#E10E35"/>
		<stop  offset="1" style="stop-color:#DF0038"/>
	</linearGradient>
	<path class="st11" d="M306.3,323.4c-8-9.2-11.7-26.8-15.5-38.1c0,0-7.1,33.7,12,49.7c19.1,16,42.1,28.8,25.3,42.1
		c-16.9,13.3,20,2.2,16.8-16.8C342.8,347.7,321.5,340.9,306.3,323.4z"/>
	<linearGradient id="SVGID_13_" gradientUnits="userSpaceOnUse" x1="289.8591" y1="181.8459" x2="392.9031" y2="181.8459">
		<stop  offset="0" style="stop-color:#FFFF1A"/>
		<stop  offset="1" style="stop-color:#FF4D00"/>
	</linearGradient>
	<path class="st12" d="M289.9,265.3c0,0,29.8-8.5,42.5-34c12.7-25.5,4.2-38.7,23.7-82.2c19.5-43.4,36.8-50.7,36.8-50.7
		s-37.2,23.2-55.3,67.1C319.6,209.5,312.2,254.1,289.9,265.3z"/>
	<linearGradient id="SVGID_14_" gradientUnits="userSpaceOnUse" x1="139.0974" y1="258.3658" x2="290.7458" y2="258.3658">
		<stop  offset="0" style="stop-color:#FFFF00"/>
		<stop  offset="0.109" style="stop-color:#FEF801"/>
		<stop  offset="0.2639" style="stop-color:#FCE606"/>
		<stop  offset="0.4461" style="stop-color:#F8C70C"/>
		<stop  offset="0.6492" style="stop-color:#F29D16"/>
		<stop  offset="0.8668" style="stop-color:#EC6722"/>
		<stop  offset="1" style="stop-color:#E7422A"/>
	</linearGradient>
	<path class="st13" d="M290.7,271.9c0,0-18.2-25.7-55-27c-36.8-1.3-78,20.8-96.7,20.4c12.4,2.2,23.1,4.4,49.7-3.5
		C224.1,251.1,244.6,249.7,290.7,271.9z"/>
	<linearGradient id="SVGID_15_" gradientUnits="userSpaceOnUse" x1="296.7418" y1="744.3532" x2="315.5535" y2="744.3532">
		<stop  offset="0" style="stop-color:#FFFF00"/>
		<stop  offset="0.2119" style="stop-color:#F7BF0E"/>
		<stop  offset="0.4988" style="stop-color:#ED6E20"/>
		<stop  offset="0.735" style="stop-color:#E5332D"/>
		<stop  offset="0.9083" style="stop-color:#E10E35"/>
		<stop  offset="1" style="stop-color:#DF0038"/>
	</linearGradient>
	<path class="st14" d="M300,720.2c0,0-5,20.7-2.7,37.2c1.3,9.3,4,11.5,8,11.1c4-0.4,10.2-17.3,10.2-17.3S299.6,765.8,300,720.2z"/>
	<linearGradient id="SVGID_16_" gradientUnits="userSpaceOnUse" x1="207.4319" y1="415.8412" x2="342.7136" y2="415.8412">
		<stop  offset="0" style="stop-color:#00F100"/>
		<stop  offset="0.2119" style="stop-color:#40F500"/>
		<stop  offset="0.4988" style="stop-color:#91F900"/>
		<stop  offset="0.735" style="stop-color:#CCFC00"/>
		<stop  offset="0.9083" style="stop-color:#F1FE00"/>
		<stop  offset="1" style="stop-color:#FFFF00"/>
	</linearGradient>
	<path class="st15" d="M225.7,390.7c0,0-34.2,18.2-8.9,33.7c55,33.7,125.9,5.3,125.9,5.3S204.4,438.6,225.7,390.7z"/>
</g>
</svg>
